# xmcd
#
# Track frame offsets:
# 150
# 11169
# 35010
# 47524
# 63042
# 78885
# 91392
# 106159
# 116422
# 131883
# 150699
# 165467
# 179971
# 191971
# 205187
# 225692
# 242499
# 261418
# 275643
# 289123
# 304736
#
# Disc length: 4286 seconds
#
#
# Revision: 0
# Processed by: cddbd v1.5PL3 Copyright (c) Steve Scherf et al.
# Submitted via: FreeRIP 2.70 
#
DISCID=2b10bc15
DTITLE=Various Artist - BT Jazz 
DYEAR=1900
DGENRE=Jazz
TTITLE0=Ain't that A Kick In The Head /Dean Martin
TTITLE1=Luck be A Lady Tonight - Frank Sinatra
TTITLE2=It HAd To Be You - Ray Charles
TTITLE3=Smoke Gets In Your Eyes - Billy Holiday
TTITLE4=Jump, Jive, And Wail - Louis Prima
TTITLE5=We Are In Love/ Harry Connick Jr.
TTITLE6=Isn't It Romantic - Tony Bennett
TTITLE7=Stardust - Nat King Cole
TTITLE8=Puttin On The Ritz - Ella Fitzgerald
TTITLE9=Makin Whoopee - Dr. John and Rickie Lee Jones
TTITLE10=I Get A kick Out Of You - Frank Sinatra
TTITLE11=That Old Black MAgic - Mel torme
TTITLE12=Recipe For Love - Harry Connick Jr.
TTITLE13=I Left My Heart In San Francisco - Tony Bennett
TTITLE14=As time Goes By - Johnny Mathis
TTITLE15=Blue Moon - Mel torme
TTITLE16=Girl From Impanema - Sammy davis Jr.
TTITLE17=I Love you (for Sentimental reasons) - Nat King Cole
TTITLE18=Summer Wind - frank Sinatra
TTITLE19=Moon river - Andy williams
TTITLE20=Shake, Shake Senora - Harry Belfonte
EXTD=
EXTT0=
EXTT1=
EXTT2=
EXTT3=
EXTT4=
EXTT5=
EXTT6=
EXTT7=
EXTT8=
EXTT9=
EXTT10=
EXTT11=
EXTT12=
EXTT13=
EXTT14=
EXTT15=
EXTT16=
EXTT17=
EXTT18=
EXTT19=
EXTT20=
PLAYORDER=
